REM MD5 531220f9f6be9687c375ffa28d24303e
FILE "Simple 1500 Jitsuyou Series Vol. 01 - Norikae Annai - 2000-nenban (Japan).bin" BINARY
  TRACK 01 MODE2/2352
    INDEX 01 00:00:00
  TRACK 02 AUDIO
    INDEX 00 00:41:17
    INDEX 01 00:43:17
  TRACK 03 AUDIO
    INDEX 00 02:51:33
    INDEX 01 02:53:33
REM LEADOUT 06:03:33
